<svg xmlns="http://www.w3.org/2000/svg" viewBox="0 0 750.8 447.66"><defs><style>.cls-1{fill:#ff725e;}.cls-2{fill:#263238;}.cls-3{fill:#bc4946;}.cls-4{fill:#ebebeb;}.cls-5{fill:#f5f5f5;}.cls-6{fill:#455a64;}.cls-7{fill:#e0e0e0;}.cls-8{fill:#fafafa;}.cls-9{fill:#fff;}.cls-10,.cls-11{opacity:0.3;}.cls-11{isolation:isolate;}.cls-12{fill:#ffbe9d;}.cls-13{fill:#eb996e;}.cls-14{fill:#0f0e0e;}</style></defs><g id="Layer_2" data-name="Layer 2"><g id="Layer_1-2" data-name="Layer 1"><g id="Background_Complete" data-name="Background Complete"><path class="cls-1" d="M712.4,350.9c4.8-2.5,10.5-2.8,15.9-1.9,2.9.5,5.9,1.3,7.9,3.5s2.3,6,.1,7.8a7.89,7.89,0,0,1-4.9,1.3c-4.2,0-8.9-.8-12.2,1.7-1.9,1.4-3.2,3.8-5.5,4.6a5.44,5.44,0,0,1-6-2.7,9.47,9.47,0,0,1-.7-6.8A9.6,9.6,0,0,1,712.4,350.9Z"/><path class="cls-1" d="M701.3,329.5c3,4.2,8.7,2.8,11.4.2s3.8-6.3,4.8-9.9c2.3-8.1,4.6-16.7,3-25a13.42,13.42,0,0,0-3.2-6.8,7.14,7.14,0,0,0-6.9-2.3c-2.9.8-4.6,3.6-6,6.3a61.13,61.13,0,0,0-5.9,25.6c-.1,4.2.5,8.5,2.8,11.9"/><path class="cls-1" d="M693.2,335.6c3.2-3.8,3.8-9.4,2.4-14.2a27.71,27.71,0,0,0-8.4-12.2,46.6,46.6,0,0,0-15-8.9,15.52,15.52,0,0,0-6.8-1.2,7.1,7.1,0,0,0-5.7,3.4c-1.6,3-.1,6.7,1.6,9.6a117.23,117.23,0,0,0,9.8,15c3,3.8,6.3,7.6,10.8,9.3s9.2,1.5,11.6-1.6"/><path class="cls-2" d="M701.1,393.2a12.5,12.5,0,0,0,.3-1.9c.1-1.4.3-3.2.5-5.2a74,74,0,0,1,1.2-7.7,59.66,59.66,0,0,1,2.8-9.1,36.7,36.7,0,0,1,4.6-8.2,18.28,18.28,0,0,1,5.8-4.9,14.63,14.63,0,0,1,4.9-1.5,6.28,6.28,0,0,0,1.9-.3,6.05,6.05,0,0,0-1.9,0,14.75,14.75,0,0,0-5.1,1.3,17.31,17.31,0,0,0-6.2,4.9,33.27,33.27,0,0,0-4.8,8.4,60.84,60.84,0,0,0-2.8,9.2,69.33,69.33,0,0,0-1,7.8c-.2,2.2-.2,4-.3,5.3A11.48,11.48,0,0,0,701.1,393.2Z"/><path class="cls-2" d="M701.4,389.2v-3.5c0-2.2,0-5.4.1-9.4.2-7.9.9-16.4,2.2-28.4,1.2-11.3,2.9-24.4,4.6-32.9.4-1.9.8-3.7,1.2-5.2s.6-2.9.9-3.9.4-1.8.6-2.5c.1-.3.1-.6.2-.9-.1.3-.2.5-.3.8-.2.6-.4,1.4-.7,2.4a35.86,35.86,0,0,0-1,3.9c-.4,1.6-.8,3.3-1.2,5.2a288.87,288.87,0,0,0-4.9,30.5c-1.3,12-1.9,22.9-2,30.9,0,4,0,7.2.1,9.4.1,1,.1,1.9.2,2.5Z"/><path class="cls-2" d="M701.4,368.1a12.19,12.19,0,0,0,0-2.7,67.6,67.6,0,0,0-.8-7.2c-.6-3.5-1.4-7-2.3-10.5a76.07,76.07,0,0,0-4.4-12.4A65.79,65.79,0,0,0,681,315.2a39.74,39.74,0,0,0-3-2.8c-.5-.4-.9-.8-1.3-1.1l-1.2-.8c-.7-.5-1.5-1-2.2-1.4a64.93,64.93,0,0,1,7.3,6.6,68.05,68.05,0,0,1,12.5,20,105.8,105.8,0,0,1,4.4,12.3c1,3.4,1.8,6.9,2.5,10.5.6,3,.9,5.4,1.1,7.1A10.07,10.07,0,0,1,701.4,368.1Z"/><polygon class="cls-3" points="681.2 405.3 683.3 434.3 720.4 434.3 722.6 405.3 681.2 405.3"/><rect class="cls-3" x="677.6" y="393.9" width="49.5" height="11.4"/><polygon class="cls-4" points="677.6 433.2 677.6 436.3 679.9 436.3 726.2 436.3 726.2 433.2 677.6 433.2"/><polygon class="cls-3" points="682.2 441.9 679.9 436.3 724.4 436.3 721.8 441.9 682.2 441.9"/><path class="cls-5" d="M721.9,414.8c0,.1-.1.2-.2.3s-.3.4-.6.7l-2.2,2.8-.1.1-.1-.1-5.3-7.4h.3l-5.3,7.4-.2.2-.2-.2-6.2-7.4h.4l-.3.4-5.6,7-.2.2-.2-.2c-1.9-2.7-3.7-5.2-5.3-7.4h.3l-6.4,7.4-.1.1-.1-.2c-.8-1.4-1.5-2.6-2-3.4l-.5-.9c-.1-.1-.1-.2-.2-.3a1.24,1.24,0,0,1,.2.3l.6.9,2.1,3.3h-.2l6.4-7.4.2-.2.1.2,5.3,7.4h-.4l5.6-7,.3-.4.2-.2.2.2,6.2,7.4h-.3l5.3-7.4.2-.2.2.2,5.2,7.4h-.2l2.3-2.7.6-.7Z"/><path class="cls-2" d="M723.1,405.1c0,.1-9.3.2-20.8.2s-20.8-.1-20.8-.2,9.3-.2,20.8-.2S723.1,405,723.1,405.1Z"/><path class="cls-5" d="M725,436.6c0,.1-10.1.2-22.6.2s-22.6-.1-22.6-.2,10.1-.2,22.6-.2S725,436.5,725,436.6Z"/></g><g id="Device"><path class="cls-6" d="M34.5,32.8H628.1a7.81,7.81,0,0,1,7.8,7.8V419.5A16.94,16.94,0,0,1,619,436.4H42.5a16.94,16.94,0,0,1-16.9-16.9h0V41.8a8.88,8.88,0,0,1,8.9-9Z"/><path class="cls-6" d="M0,406.6H661.3V426a15.88,15.88,0,0,1-15.9,15.9H15.9A15.88,15.88,0,0,1,0,426V406.6Z"/><rect class="cls-7" x="41.9" y="48.8" width="575.9" height="340.9"/><polygon class="cls-2" points="270.6 406.6 278.7 419.6 394.2 419.6 401.9 406.6 270.6 406.6"/><rect class="cls-2" x="59" y="68.6" width="543.1" height="321.1"/><path class="cls-7" d="M100.7,380.3c-.3,0-.5-68.4-.5-152.7s.2-152.8.5-152.8.5,68.4.5,152.8S101,380.3,100.7,380.3Z"/><path class="cls-7" d="M89.7,102.5c0,.3-4,.5-8.8.5s-8.8-.2-8.8-.5,4-.5,8.8-.5S89.7,102.2,89.7,102.5Z"/><path class="cls-7" d="M90.4,85.1c0,.3-4,.5-8.8.5s-8.8-.2-8.8-.5,4-.5,8.8-.5S90.4,84.8,90.4,85.1Z"/><path class="cls-7" d="M89.7,121.1c0,.3-4,.5-8.8.5s-8.8-.2-8.8-.5,4-.5,8.8-.5S89.7,120.8,89.7,121.1Z"/><path class="cls-7" d="M89.7,139.8c0,.3-4,.5-8.8.5s-8.8-.2-8.8-.5,4-.5,8.8-.5S89.7,139.5,89.7,139.8Z"/><path class="cls-7" d="M89.7,158.5c0,.3-4,.5-8.8.5s-8.8-.2-8.8-.5,4-.5,8.8-.5S89.7,158.2,89.7,158.5Z"/><path class="cls-7" d="M89.7,177.2c0,.3-4,.5-8.8.5s-8.8-.2-8.8-.5,4-.5,8.8-.5S89.7,176.9,89.7,177.2Z"/><path class="cls-7" d="M89.7,195.9c0,.3-4,.5-8.8.5s-8.8-.2-8.8-.5,4-.5,8.8-.5S89.7,195.6,89.7,195.9Z"/><path class="cls-7" d="M89.7,214.6c0,.3-4,.5-8.8.5s-8.8-.2-8.8-.5,4-.5,8.8-.5S89.7,214.3,89.7,214.6Z"/><path class="cls-7" d="M89.7,233.3c0,.3-4,.5-8.8.5s-8.8-.2-8.8-.5,4-.5,8.8-.5S89.7,233,89.7,233.3Z"/><path class="cls-7" d="M89.7,251.9c0,.3-4,.5-8.8.5s-8.8-.2-8.8-.5,4-.5,8.8-.5S89.7,251.7,89.7,251.9Z"/><path class="cls-7" d="M89.7,270.6c0,.3-4,.5-8.8.5s-8.8-.2-8.8-.5,4-.5,8.8-.5S89.7,270.3,89.7,270.6Z"/><path class="cls-7" d="M89.7,289.3c0,.3-4,.5-8.8.5s-8.8-.2-8.8-.5,4-.5,8.8-.5S89.7,289,89.7,289.3Z"/><path class="cls-7" d="M89.7,308c0,.3-4,.5-8.8.5s-8.8-.2-8.8-.5,4-.5,8.8-.5S89.7,307.7,89.7,308Z"/><path class="cls-7" d="M89.7,326.7c0,.3-4,.5-8.8.5s-8.8-.2-8.8-.5,4-.5,8.8-.5S89.7,326.4,89.7,326.7Z"/><path class="cls-7" d="M89.7,345.4c0,.3-4,.5-8.8.5s-8.8-.2-8.8-.5,4-.5,8.8-.5S89.7,345.1,89.7,345.4Z"/><path class="cls-7" d="M89.7,364.1c0,.3-4,.5-8.8.5s-8.8-.2-8.8-.5,4-.5,8.8-.5S89.7,363.8,89.7,364.1Z"/><path class="cls-1" d="M160.4,101.4c0,.3-10.2.5-22.9.5s-22.9-.2-22.9-.5,10.2-.5,22.9-.5S160.4,101.1,160.4,101.4Z"/><path class="cls-1" d="M160.4,364.1c0,.3-10.2.5-22.9.5s-22.9-.2-22.9-.5,10.2-.5,22.9-.5S160.4,363.8,160.4,364.1Z"/><path class="cls-1" d="M224.2,139.8c0,.3-19.2.5-42.8.5s-42.8-.2-42.8-.5,19.2-.5,42.8-.5S224.2,139.5,224.2,139.8Z"/><path class="cls-7" d="M323.2,139.8c0,.3-19.2.5-42.8.5s-42.8-.2-42.8-.5,19.2-.5,42.8-.5S323.2,139.5,323.2,139.8Z"/><path class="cls-7" d="M285.4,158.5c0,.3-28.3.5-63.1.5s-63.1-.2-63.1-.5,28.3-.5,63.1-.5S285.4,158.2,285.4,158.5Z"/><path class="cls-7" d="M285.4,177.2c0,.3-28.3.5-63.1.5s-63.2-.2-63.2-.5,28.3-.5,63.1-.5C257.2,176.7,285.4,176.9,285.4,177.2Z"/><path class="cls-7" d="M372.4,233.3c0,.3-28.3.5-63.1.5s-63.1-.2-63.1-.5,28.1-.6,63-.6S372.4,233,372.4,233.3Z"/><path class="cls-7" d="M334.7,195.9c0,.3-28.3.5-63.1.5s-63.1-.2-63.1-.5,28.3-.5,63.1-.5S334.7,195.6,334.7,195.9Z"/><path class="cls-7" d="M489.1,195.9c0,.3-28.3.5-63.1.5s-63.1-.2-63.1-.5,28.3-.5,63.1-.5S489.1,195.6,489.1,195.9Z"/><path class="cls-8" d="M435.4,158.5c0,.3-28.3.5-63.1.5s-63.1-.2-63.1-.5,28.3-.5,63.1-.5S435.4,158.2,435.4,158.5Z"/><path class="cls-8" d="M522.7,233.3c0,.3-28.3.5-63.1.5s-63.1-.2-63.1-.5,28.3-.5,63.1-.5S522.7,233,522.7,233.3Z"/><path class="cls-6" d="M505.2,177.2c0,.3-43.9.5-98,.5s-98-.2-98-.5,43.9-.5,98-.5S505.2,176.9,505.2,177.2Z"/><path class="cls-8" d="M160.4,121.1c0,.3-10.2.5-22.9.5s-22.9-.2-22.9-.5,10.2-.5,22.9-.5S160.4,120.8,160.4,121.1Z"/><path class="cls-8" d="M160.4,345.4c0,.3-10.2.5-22.9.5s-22.9-.2-22.9-.5,10.2-.5,22.9-.5S160.4,345.1,160.4,345.4Z"/><path class="cls-8" d="M183.1,195.9c0,.3-10.2.5-22.9.5s-22.9-.2-22.9-.5,10.3-.5,22.9-.5S183.1,195.6,183.1,195.9Z"/><path class="cls-1" d="M550.1,195.9c0,.3-10.2.5-22.9.5s-22.9-.2-22.9-.5,10.1-.5,22.9-.5S550.1,195.6,550.1,195.9Z"/><path class="cls-1" d="M224.2,270.5c0,.3-19.2.5-42.8.5s-42.8-.2-42.8-.5,19.2-.5,42.8-.5S224.2,270.2,224.2,270.5Z"/><path class="cls-7" d="M323.2,270.5c0,.3-19.2.5-42.8.5s-42.8-.2-42.8-.5,19.2-.5,42.8-.5S323.2,270.2,323.2,270.5Z"/><path class="cls-7" d="M285.4,289.2c0,.3-28.3.5-63.1.5s-63.1-.2-63.1-.5,28.3-.5,63.1-.5S285.4,288.9,285.4,289.2Z"/><path class="cls-7" d="M285.4,307.9c0,.3-28.3.5-63.1.5s-63.1-.2-63.1-.5,28.3-.5,63.1-.5S285.4,307.6,285.4,307.9Z"/><path class="cls-7" d="M334.7,326.6c0,.3-28.3.5-63.1.5s-63.1-.2-63.1-.5,28.3-.5,63.1-.5S334.7,326.3,334.7,326.6Z"/><path class="cls-7" d="M489.1,326.6c0,.3-28.3.5-63.1.5s-63.1-.2-63.1-.5,28.3-.5,63.1-.5S489.1,326.3,489.1,326.6Z"/><path class="cls-8" d="M435.4,289.2c0,.3-28.3.5-63.1.5s-63.1-.2-63.1-.5,28.3-.5,63.1-.5S435.4,288.9,435.4,289.2Z"/><path class="cls-6" d="M505.2,307.9c0,.3-43.9.5-98,.5s-98-.2-98-.5,43.9-.5,98-.5S505.2,307.6,505.2,307.9Z"/><path class="cls-8" d="M183.1,326.6c0,.3-10.2.5-22.9.5s-22.9-.2-22.9-.5,10.3-.5,22.9-.5S183.1,326.3,183.1,326.6Z"/><path class="cls-1" d="M550.1,326.6c0,.3-10.2.5-22.9.5s-22.9-.2-22.9-.5,10.2-.5,22.9-.5S550.1,326.3,550.1,326.6Z"/><path class="cls-2" d="M562.4,418.4c0,.2-116.9.3-261.1.3s-261.2-.1-261.2-.3,116.9-.3,261.2-.3S562.4,418.3,562.4,418.4Z"/></g><polygon class="cls-8" points="623.4 0.3 312.1 0.3 312.1 193.1 574.2 193.1 590.4 230.4 604.8 193.1 623.4 193.1 623.4 0.3"/><path class="cls-2" d="M623.4.3c0,1.9.1,74.4.2,192.9v.2H604.7l.2-.2c-4.5,11.7-9.4,24.3-14.4,37.3l-.2.6-.3-.6c-5.1-11.7-10.6-24.3-16.3-37.3l.2.2H311.5V0h.3L623.4.3,312,.6l.3-.3V193.2l-.3-.3H574.3l.1.2,16.3,37.3h-.5c5-13,9.9-25.6,14.4-37.3v-.2h18.8l-.2.2C623.4,74.6,623.4,2.2,623.4.3Z"/><path class="cls-2" d="M623.3,19.1c0,.2-69.6.4-155.4.4s-155.4-.2-155.4-.4,69.6-.4,155.4-.4S623.3,18.9,623.3,19.1Z"/><path class="cls-2" d="M328.7,10.6a2.55,2.55,0,1,1-2.6-2.5h0A2.7,2.7,0,0,1,328.7,10.6Z"/><path class="cls-2" d="M337.9,10.6a2.55,2.55,0,1,1-2.6-2.5h0A2.5,2.5,0,0,1,337.9,10.6Z"/><path class="cls-2" d="M347.1,10.6a2.55,2.55,0,1,1-2.6-2.5h0A2.44,2.44,0,0,1,347.1,10.6Z"/><path class="cls-2" d="M346.1,53.6l-7.4,2.9,7.4,2.8V61l-9.3-3.7V55.5l9.3-3.7Z"/><path class="cls-2" d="M353.7,46.2h1.8l-6.9,19.6h-1.8Z"/><path class="cls-2" d="M365.4,55.6v1.8l-9.3,3.7V59.3l7.4-2.8-7.4-2.9V51.9Z"/><path class="cls-2" d="M367.9,62.4a1.37,1.37,0,0,1,1.4-1.4h0a1.37,1.37,0,0,1,1.4,1.4h0a1.37,1.37,0,0,1-1.3,1.5h-.1a1.34,1.34,0,0,1-1.4-1.5Z"/><path class="cls-2" d="M372.6,62.4A1.37,1.37,0,0,1,374,61h.1a1.37,1.37,0,0,1,1.4,1.4h0a1.37,1.37,0,0,1-1.3,1.5h-.1a1.37,1.37,0,0,1-1.4-1.4C372.6,62.5,372.6,62.5,372.6,62.4Z"/><path class="cls-2" d="M377.4,62.4a1.37,1.37,0,0,1,1.4-1.4h.1a1.37,1.37,0,0,1,1.4,1.4h0a1.37,1.37,0,0,1-1.3,1.5h-.1a1.42,1.42,0,0,1-1.5-1.5Z"/><path class="cls-6" d="M542.7,81.1c0,.2-46,.4-102.8.4s-102.8-.2-102.8-.4,46-.4,102.8-.4S542.7,80.9,542.7,81.1Z"/><path class="cls-2" d="M576.3,81.7c0,.2-4.4.4-9.9.4s-9.9-.2-9.9-.4,4.4-.4,9.9-.4S576.3,81.5,576.3,81.7Z"/><path class="cls-2" d="M605.1,81.7c0,.2-4.8.4-10.8.4s-10.8-.2-10.8-.4,4.8-.4,10.8-.4S605.1,81.5,605.1,81.7Z"/><path class="cls-6" d="M468,98.4c0,.2-29.3.4-65.3.4s-65.3-.2-65.3-.4,29.2-.4,65.3-.4S468,98.2,468,98.4Z"/><path class="cls-6" d="M467.1,163.1c0,.2-29.3.4-65.3.4s-65.3-.2-65.3-.4,29.2-.4,65.3-.4C437.7,162.7,467.1,162.9,467.1,163.1Z"/><path class="cls-2" d="M515.4,98.4c0,.2-8,.4-17.8.4s-17.8-.2-17.8-.4,8-.4,17.8-.4C507.6,98,515.4,98.2,515.4,98.4Z"/><path class="cls-2" d="M515.1,163.1c0,.2-8,.4-17.8.4s-17.8-.2-17.8-.4,8-.4,17.8-.4S515.1,162.9,515.1,163.1Z"/><path class="cls-1" d="M345.9,107.3c0,.2-2,.4-4.4.4s-4.4-.2-4.4-.4,2-.4,4.4-.4S345.9,107,345.9,107.3Z"/><path class="cls-2" d="M376.2,107.4c0,.2-4.3.4-9.6.4s-9.6-.2-9.6-.4,4.3-.4,9.6-.4S376.2,107.2,376.2,107.4Z"/><path class="cls-2" d="M395.7,107.4c0,.2-3.7.4-8.2.4s-8.2-.2-8.2-.4,3.7-.4,8.2-.4S395.7,107.2,395.7,107.4Z"/><path class="cls-2" d="M420.4,107.4c0,.2-3.7.4-8.4.4s-8.4-.2-8.4-.4,3.7-.4,8.4-.4S420.4,107.2,420.4,107.4Z"/><path class="cls-2" d="M441.9,107.4c0,.2-3.4.4-7.6.4s-7.6-.2-7.6-.4,3.4-.4,7.6-.4S441.9,107.2,441.9,107.4Z"/><path class="cls-2" d="M513.4,107.4c0,.2-15,.4-33.4.4s-33.4-.2-33.4-.4,15-.4,33.4-.4S513.4,107.2,513.4,107.4Z"/><path class="cls-1" d="M344.7,118.5c0,.2-1.7.4-3.8.4s-3.8-.2-3.8-.4,1.7-.4,3.8-.4S344.7,118.3,344.7,118.5Z"/><path class="cls-1" d="M345,130.1c0,.2-1.8.4-4,.4s-4-.2-4-.4,1.8-.4,4-.4S345,129.8,345,130.1Z"/><path class="cls-1" d="M345,143.1c0,.2-1.8.4-4,.4s-4-.2-4-.4,1.8-.4,4-.4S345,142.9,345,143.1Z"/><path class="cls-2" d="M417,142.5c0,.2-13.2.4-29.5.4s-29.5-.2-29.5-.4,13.2-.4,29.5-.4S417,142.3,417,142.5Z"/><path class="cls-2" d="M411.9,130.1c0,.2-12.6.4-28.1.4s-28.1-.2-28.1-.4,12.6-.4,28.1-.4S411.9,129.8,411.9,130.1Z"/><path class="cls-2" d="M547.7,117.9c0,.2-42.9.4-95.7.4s-95.7-.2-95.7-.4,42.8-.4,95.7-.4S547.7,117.7,547.7,117.9Z"/><polygon class="cls-8" points="642.6 79.1 642.6 243 617.1 264.3 642.6 264.3 645.1 264.3 750.4 264.3 750.4 79.1 642.6 79.1"/><path class="cls-2" d="M642.6,79.1h29l78.9-.1h.2v.2c0,49.5,0,114.1.1,185.1v.4H616.4l.6-.5,25.5-21.3-.1.2c.1-49,.1-90,.1-118.7,0-14.3.1-25.6.1-33.3V80c-.2-.6-.2-.8,0-.9-.1,0-.1.3-.1.8V91c0,7.7,0,19,.1,33.4,0,28.7.1,69.6.1,118.6v.1l-.1.1-25.4,21.4-.2-.5H750.3l-.3.3c0-71.1,0-135.7.1-185.1l.2.2-78.7-.1H644.5Z"/><path class="cls-2" d="M652.4,87.3a2.2,2.2,0,1,1-2.2-2.2,2.22,2.22,0,0,1,2.2,2.2Z"/><path class="cls-2" d="M660.3,87.3a2.2,2.2,0,1,1-2.2-2.2,2.22,2.22,0,0,1,2.2,2.2Z"/><path class="cls-2" d="M668.2,87.3a2.2,2.2,0,1,1-2.2-2.2,2.22,2.22,0,0,1,2.2,2.2Z"/><path class="cls-1" d="M720.7,137.8c0,.2-13.7.3-30.5.3s-30.5-.2-30.5-.3,13.7-.3,30.5-.3S720.7,137.6,720.7,137.8Z"/><path class="cls-1" d="M733.4,152.6c0,.2-16.6.3-37.2.3s-37.2-.2-37.2-.3,16.6-.3,37.2-.3S733.4,152.4,733.4,152.6Z"/><path class="cls-1" d="M736.4,208c0,.2-17.7.3-39.6.3s-39.6-.2-39.6-.3,17.7-.4,39.6-.4S736.4,207.7,736.4,208Z"/><path class="cls-1" d="M665.4,160.1a18.94,18.94,0,0,1-7.5,0A23.59,23.59,0,0,1,665.4,160.1Z"/><path class="cls-1" d="M691.4,160.3a89.84,89.84,0,0,1-16.4,0c0-.2,3.7-.4,8.1-.4C687.7,160,691.4,160.1,691.4,160.3Z"/><path class="cls-1" d="M708.1,160.3a65.52,65.52,0,0,1-14,0c0-.2,3.1-.4,7-.4S708.1,160.1,708.1,160.3Z"/><path class="cls-1" d="M664.4,169.8a14.27,14.27,0,0,1-6.5,0A14.27,14.27,0,0,1,664.4,169.8Z"/><path class="cls-1" d="M664.7,179.7a15.6,15.6,0,0,1-6.8,0A15.6,15.6,0,0,1,664.7,179.7Z"/><path class="cls-1" d="M664.7,190.8a15.6,15.6,0,0,1-6.8,0A19.41,19.41,0,0,1,664.7,190.8Z"/><path class="cls-1" d="M726.3,190.3c0,.2-11.3.4-25.2.4s-25.2-.1-25.2-.4,11.3-.3,25.2-.3S726.3,190.1,726.3,190.3Z"/><path class="cls-1" d="M721.9,179.7c0,.2-10.8.3-24,.3s-24-.2-24-.3,10.8-.3,24-.3S721.9,179.5,721.9,179.7Z"/><path class="cls-1" d="M669.6,222.7a15.6,15.6,0,0,1-6.8,0A15.6,15.6,0,0,1,669.6,222.7Z"/><path class="cls-1" d="M669.6,233.9a15.6,15.6,0,0,1-6.8,0A15.6,15.6,0,0,1,669.6,233.9Z"/><path class="cls-1" d="M731.2,233.3c0,.2-11.3.3-25.2.3s-25.2-.2-25.2-.3,11.3-.3,25.2-.3S731.2,233.1,731.2,233.3Z"/><path class="cls-1" d="M726.8,222.7c0,.2-10.8.3-24,.3s-24-.2-24-.3,10.8-.3,24-.3S726.8,222.5,726.8,222.7Z"/><path class="cls-1" d="M739.7,169.2c0,.2-14.7.4-32.7.4s-32.8-.2-32.8-.4,14.7-.3,32.7-.3S739.7,169.1,739.7,169.2Z"/><path class="cls-2" d="M749.4,95.8c0,.2-23.7.3-52.9.3s-52.9-.2-52.9-.3,23.7-.3,52.9-.3S749.4,95.6,749.4,95.8Z"/><path class="cls-1" d="M682,128.8a166,166,0,0,1-22.3,0c0-.2,5-.3,11.2-.3S682,128.6,682,128.8Z"/><path class="cls-1" d="M669.4,108.6a36.94,36.94,0,0,1-10.5,0c0-.2,2.3-.3,5.3-.3S669.4,108.4,669.4,108.6Z"/><g id="Character"><path class="cls-9" d="M576.1,347.2l23.4-23.1-41.7-71.4a38.91,38.91,0,0,0-16-11.1L527.1,236l-36.5-6.7-25.9,10.2a15.42,15.42,0,0,0-9.7,16.3l6.8,57.1,4,74.4L560.1,371l-9.5-27.5.3-42.9Z"/><path class="cls-2" d="M551.3,341.5c.2,0,.3-14.9.1-33.2s-.4-33.2-.7-33.2-.3,14.9-.1,33.2S551.1,341.5,551.3,341.5Z"/><path class="cls-9" d="M547.7,352.4l-56.9-22.9a12.91,12.91,0,0,1-8.1-11.1l-4.2-54.6s.5-23.2-14-24.4l-8.3,3.3c-10.7,5.7-13.3,21.2-11.9,33.2,2.1,17,2.9,41.2,5.2,55.9,1.9,12.1,9.2,21.7,20.7,25.9l70.2,15.2Z"/><path class="cls-2" d="M479.4,272.1a5.07,5.07,0,0,1,.2,1.3c.1.9.2,2.1.4,3.6.3,3.2.7,7.7,1.2,13.2s1,12.3,1.7,19.6c.2,1.8.3,3.7.5,5.7a54.07,54.07,0,0,0,.7,5.8,9.9,9.9,0,0,0,2.8,5.1,18.16,18.16,0,0,0,5.3,3.3c15.7,6.8,30.2,12.4,40.7,16.3l12.5,4.6,3.4,1.2a6.12,6.12,0,0,1,1.2.5l-1.2-.3-3.5-1.2c-3-1-7.3-2.5-12.6-4.4-10.6-3.8-25.1-9.3-40.8-16.2a21,21,0,0,1-5.5-3.4,10,10,0,0,1-3-5.5,41.17,41.17,0,0,1-.7-5.9c-.2-1.9-.3-3.8-.5-5.7-.6-7.4-1.1-14-1.5-19.7s-.7-10.1-1-13.3c-.1-1.5-.2-2.7-.2-3.6A2.79,2.79,0,0,1,479.4,272.1Z"/><path class="cls-2" d="M446.7,301.8a1.7,1.7,0,0,1,.1.7c.1.6.1,1.3.2,2.1.2,2,.4,4.6.7,7.7s.7,7.2,1.3,11.5a105,105,0,0,0,2.6,13.8,20.23,20.23,0,0,0,2.8,6.6,36,36,0,0,0,4.3,5.2,38,38,0,0,0,9.1,6.8,34.59,34.59,0,0,0,10,3.3h-.7a7.61,7.61,0,0,1-2.1-.3,26.93,26.93,0,0,1-7.4-2.5,34.72,34.72,0,0,1-9.4-6.8,37.52,37.52,0,0,1-4.4-5.3,21.5,21.5,0,0,1-2.9-6.8,94.22,94.22,0,0,1-2.5-13.9c-.5-4.3-.9-8.2-1.2-11.5s-.4-5.9-.4-7.8v-2.1A1.48,1.48,0,0,1,446.7,301.8Z"/><path class="cls-2" d="M471.1,340a7.61,7.61,0,0,1,1-3,20.28,20.28,0,0,1,4.8-6.1,19.84,19.84,0,0,1,6.8-3.8,7,7,0,0,1,3.2-.5c0,.1-1.2.4-3,1.1a22.56,22.56,0,0,0-11.3,9.6A20,20,0,0,1,471.1,340Z"/><g class="cls-10"><path d="M531.4,345.9c-6.1-3.5-12-6.1-18.4-9s-12.6-6.6-16.8-12.2c-7.9-10.6-7-25.9-15-36.3l1.6,21.1c.5,6.4-.5,12.8,3.6,17.2,3.5,3.7,10.3,6.5,15.1,8.1,9.7,3.2,20.2,7.9,29.9,11.1"/></g><polygon class="cls-11" points="550.8 279.2 555.7 309.6 551 300.9 550.8 279.2"/><path class="cls-6" d="M477.7,260.4a5.7,5.7,0,0,1-1.3.1l-3.6.1c-3,.1-7.2.2-11.8.6s-8.8.8-11.8,1.2l-3.6.4a5.7,5.7,0,0,1-1.3.1,2.77,2.77,0,0,1,1.3-.3,34.81,34.81,0,0,1,3.5-.6c3-.5,7.2-1,11.8-1.3s8.8-.4,11.9-.4a35.47,35.47,0,0,1,3.6.1A2.82,2.82,0,0,1,477.7,260.4Z"/><path class="cls-6" d="M479.2,289.5c0,.2-7.5.9-16.7,1.7s-16.7,1.2-16.7,1.1,7.4-.9,16.7-1.7S479.2,289.3,479.2,289.5Z"/><path class="cls-6" d="M482.1,320.1a4.73,4.73,0,0,1-1.2.7c-.8.4-1.9.9-3.4,1.6a67.48,67.48,0,0,1-23.8,5.3,22.4,22.4,0,0,1-3.7,0,5.28,5.28,0,0,1-1.3-.1,5.7,5.7,0,0,1,1.3-.1c.9,0,2.1-.1,3.7-.2a80.81,80.81,0,0,0,12-1.8,77.53,77.53,0,0,0,11.6-3.5,25.42,25.42,0,0,0,3.4-1.4A3.94,3.94,0,0,1,482.1,320.1Z"/><path class="cls-6" d="M502.2,335.8a27.64,27.64,0,0,0-5.6,4.5,30.09,30.09,0,0,0-3.9,6.1,8.3,8.3,0,0,1,.6-2.1,16.82,16.82,0,0,1,7-7.7A5.17,5.17,0,0,1,502.2,335.8Z"/><path class="cls-6" d="M522.9,355.9a21.81,21.81,0,0,1,6.1-11.1c.1.1-1.6,2.3-3.3,5.4S523.1,355.9,522.9,355.9Z"/><path class="cls-6" d="M490.4,243.3a111.22,111.22,0,0,1-16.3,2.9,53,53,0,0,1,8.1-1.8A76.79,76.79,0,0,1,490.4,243.3Z"/><path class="cls-6" d="M545,245.8a207.56,207.56,0,0,1-22.3-2.6,105.86,105.86,0,0,1,11.2,1A109.91,109.91,0,0,1,545,245.8Z"/><path class="cls-6" d="M549.6,271.2H539.3c-6.3,0-15.1,0-24.8.3s-18.4.6-24.8,1l-7.5.4-2,.1h-.7a1.7,1.7,0,0,1,.7-.1l2-.2q2.7-.3,7.5-.6c6.3-.4,15.1-.9,24.8-1.2s18.4-.2,24.8-.1c3.2,0,5.7.1,7.5.2l2,.1A1,1,0,0,1,549.6,271.2Z"/><path class="cls-6" d="M550.3,303.2c0,.2-14.9,1.3-33.4,2.5s-33.4,2.1-33.4,1.9,14.9-1.3,33.4-2.5C535.2,303.9,550.3,303.1,550.3,303.2Z"/><path class="cls-6" d="M548.7,331.6a5,5,0,0,1-1.3.5c-.8.3-2,.7-3.5,1.2-3,1-7.2,2.2-11.8,3.3s-8.9,1.9-12,2.4c-1.6.2-2.8.4-3.7.5a6.6,6.6,0,0,1-1.4.1,3.08,3.08,0,0,1,1.3-.3l3.6-.7c3.1-.6,7.3-1.5,12-2.6s8.8-2.3,11.8-3.1l3.6-1A3.53,3.53,0,0,1,548.7,331.6Z"/><path class="cls-6" d="M572.6,280.3a104,104,0,0,1-10.9,3.1,103,103,0,0,1-11,2.5,210.92,210.92,0,0,1,21.9-5.6Z"/><path class="cls-6" d="M561.2,258.6a19.87,19.87,0,0,1-4.8,1.2,20.53,20.53,0,0,1-4.9.6,32,32,0,0,1,9.7-1.8Z"/><path class="cls-2" d="M479.6,265.3a44.46,44.46,0,0,0-1.4-4.8A24.55,24.55,0,0,0,460.9,245a31.25,31.25,0,0,0-5-.8,3.3,3.3,0,0,1,1.4,0,23.93,23.93,0,0,1,22.2,19.9A4.48,4.48,0,0,1,479.6,265.3Z"/><path class="cls-2" d="M547.4,249.8a94.31,94.31,0,0,1,2,10.6,94.84,94.84,0,0,1,1.4,10.7,94.31,94.31,0,0,1-2-10.6C548.2,257,547.7,253.4,547.4,249.8Z"/><path class="cls-1" d="M610.9,421.1s43.8,12.1,45.5,12.8c2.6.9,2.2,10.6-1.9,10.5-1.9-.1-33.6,1.2-37.6.9s-16.1-5-16.1-5Z"/><path class="cls-2" d="M629.2,437.8c.2,0,.5-2.3,1.9-4.6a44.55,44.55,0,0,1,3.1-4,8.28,8.28,0,0,0-3.7,3.7C629,435.3,629,437.8,629.2,437.8Z"/><path class="cls-2" d="M624.6,435.7c.2,0,.7-2,1.8-4.3s2.5-3.9,2.3-4a8.38,8.38,0,0,0-3,3.7C624.4,433.5,624.4,435.7,624.6,435.7Z"/><path class="cls-2" d="M620.3,434.5c.2,0,0-2.2,1-4.6s2.5-3.9,2.4-4.1-2.1,1.2-3.1,3.8S620.1,434.6,620.3,434.5Z"/><path class="cls-2" d="M621.1,428.9a7.18,7.18,0,0,0,.5-3.3,14.87,14.87,0,0,0-.5-3.6,11.76,11.76,0,0,0-.7-2,2.59,2.59,0,0,0-.7-1.1,1.2,1.2,0,0,0-1.5.1,2,2,0,0,0-.6,1.2v1.2a7.61,7.61,0,0,0,.3,2.1,12,12,0,0,0,1.3,3.3,8.6,8.6,0,0,0,2,2.6,26.39,26.39,0,0,0-1.5-2.9,16.07,16.07,0,0,1-1.2-3.3,13.55,13.55,0,0,1-.2-2c0-.7,0-1.5.4-1.8a.37.37,0,0,1,.6,0,2.18,2.18,0,0,1,.5.8,14.58,14.58,0,0,1,.7,1.9,20.21,20.21,0,0,1,.6,3.4C621.2,427.6,621,428.9,621.1,428.9Z"/><path class="cls-2" d="M621,428.4a6.92,6.92,0,0,0-2.8-.5,11,11,0,0,0-3.1.4,6.7,6.7,0,0,0-1.8.7,2,2,0,0,0-1,2,2.17,2.17,0,0,0,1.6,1.6,3.4,3.4,0,0,0,2,0,7.39,7.39,0,0,0,2.8-1.4,6.36,6.36,0,0,0,2-2,18.82,18.82,0,0,0-2.3,1.6,8.25,8.25,0,0,1-2.7,1.2,4.3,4.3,0,0,1-1.6,0,1.57,1.57,0,0,1-1.1-1,1.31,1.31,0,0,1,.7-1.2,4.42,4.42,0,0,1,1.6-.6,15.67,15.67,0,0,1,3-.5C620,428.4,621,428.6,621,428.4Z"/><path class="cls-2" d="M635.9,438.2c.2,0,0-1.9.9-4s2.3-3.3,2.1-3.4-1.9.9-2.8,3.1S635.7,438.3,635.9,438.2Z"/><path class="cls-2" d="M605.3,440.2a8.86,8.86,0,0,0,1.7.8,39.74,39.74,0,0,0,4.9,1.5,72.21,72.21,0,0,0,16.7,1.6c6.6-.1,12.5-.4,16.8-.5l5.1-.3a13.66,13.66,0,0,0,1.9-.2,11.48,11.48,0,0,0-1.9-.1h-5.1l-16.7.3a77,77,0,0,1-16.6-1.4A53.51,53.51,0,0,1,605.3,440.2Z"/><path class="cls-2" d="M604,441.2c0,.1,1.3-.6,3.3-1.5a15.73,15.73,0,0,1,8.3-1.4c3.3.5,5.6,2.7,7.2,4.3a30.7,30.7,0,0,0,2.5,2.6,12.7,12.7,0,0,0-2.1-2.9,18.57,18.57,0,0,0-2.9-2.7,10.59,10.59,0,0,0-4.5-1.9,14.19,14.19,0,0,0-8.6,1.6A12.89,12.89,0,0,0,604,441.2Z"/><path class="cls-1" d="M559.1,410.9s-41.4,27.1-42.9,28.3c-2.2,1.7.3,9.7,4.2,8.3,1.8-.7,36.6-10.3,40.3-11.8s13.8-9.7,13.8-9.7Z"/><path class="cls-2" d="M546.7,432.3c.2,0-.6-2.4-2.8-4.4s-4.6-2.5-4.6-2.3a35.65,35.65,0,0,1,4.2,2.9A28,28,0,0,1,546.7,432.3Z"/><path class="cls-2" d="M550.4,429c.2-.1-.6-2.1-2.5-4.1s-4-2.8-4-2.6,1.7,1.3,3.5,3.1A33,33,0,0,1,550.4,429Z"/><path class="cls-2" d="M554.3,426.6c.2,0,0-2.3-1.8-4.6s-4-2.9-4.1-2.7,1.9,1.2,3.5,3.2S554.1,426.6,554.3,426.6Z"/><path class="cls-2" d="M551.8,421.4c.1,0-.5-1.2-.9-3.1a19.68,19.68,0,0,1-.5-3.5v-2a2.92,2.92,0,0,1,.2-.9c.1-.2.4-.2.6-.1.5.2.7,1,.9,1.6a11.8,11.8,0,0,1,.4,2,13.68,13.68,0,0,1-.1,3.5c-.3,2-.7,3.2-.6,3.2a11.47,11.47,0,0,0,1.1-3.1,14.61,14.61,0,0,0,.3-3.6,15.52,15.52,0,0,0-.4-2.1,4.87,4.87,0,0,0-.4-1.1,2.19,2.19,0,0,0-.9-1,1.27,1.27,0,0,0-1.5.4,2.66,2.66,0,0,0-.3,1.2v2.1a13.59,13.59,0,0,0,.7,3.5A6,6,0,0,0,551.8,421.4Z"/><path class="cls-2" d="M551.7,421c.1.1,1-.4,2.7-.8a15.44,15.44,0,0,1,3-.4,9.7,9.7,0,0,1,1.7.1,1.28,1.28,0,0,1,1,1,1.46,1.46,0,0,1-.7,1.3,3,3,0,0,1-1.5.5,7,7,0,0,1-2.9-.3,27.59,27.59,0,0,0-2.7-.8,7.94,7.94,0,0,0,2.6,1.3,8.4,8.4,0,0,0,3.1.5,3.29,3.29,0,0,0,1.9-.6,2,2,0,0,0,1-2,1.81,1.81,0,0,0-1.5-1.6,6.08,6.08,0,0,0-1.9-.1,17,17,0,0,0-3.1.6A5.69,5.69,0,0,0,551.7,421Z"/><path class="cls-2" d="M525.7,445.9c.1.1.7-.4,1-1.6a6,6,0,0,0-.8-4.5c-.4-.7-.9-1.4-1.4-2.1a6.73,6.73,0,0,0-1.4-1.5,2.11,2.11,0,0,0-1.3-.5,1.21,1.21,0,0,0-.5.1,3.61,3.61,0,0,1,1.5.8l1.2,1.5a22.63,22.63,0,0,1,1.3,2,6.25,6.25,0,0,1,.9,4C526,444.8,525.9,445.4,525.7,445.9Z"/><path class="cls-2" d="M540.4,434.8c.2,0,.1-2.1-1.5-4s-3.6-2.3-3.6-2.1a18.81,18.81,0,0,1,3.1,2.6C539.9,433.1,540.2,434.9,540.4,434.8Z"/><path class="cls-2" d="M570.3,427.5a20.28,20.28,0,0,0-1.8,1.3,43.26,43.26,0,0,1-5.1,3.1,58.71,58.71,0,0,1-8.1,3.6,106.58,106.58,0,0,1-10.4,3.3c-7.5,2.1-14.2,4.1-19.1,5.6l-5.7,1.8a17.23,17.23,0,0,0-2.1.7,8.73,8.73,0,0,0,2.2-.5l5.8-1.5c4.9-1.3,11.6-3.2,19.1-5.4,3.7-1.1,7.3-2.2,10.5-3.4a59.77,59.77,0,0,0,8.1-3.8,33.87,33.87,0,0,0,5-3.4A20,20,0,0,0,570.3,427.5Z"/><path class="cls-2" d="M571.8,428a10.64,10.64,0,0,0-3.5-.9,13.78,13.78,0,0,0-8.7,1.1,10.49,10.49,0,0,0-3.7,3.2,17,17,0,0,0-1.9,3.5,20.63,20.63,0,0,0-1.2,3.5,19.12,19.12,0,0,0,1.6-3.2c1-1.9,2.5-4.8,5.5-6.2a14.84,14.84,0,0,1,8.3-1.2C570.4,427.9,571.8,428.2,571.8,428Z"/><path class="cls-2" d="M645.2,343.1s12.4,4.4,12.5,18.4c.1,26.7-53.9,56.1-53.9,56.1L531.9,370l-4.5-1.8C527.4,368.1,624.4,331.6,645.2,343.1Z"/><path class="cls-6" d="M568.3,394a11.8,11.8,0,0,0,1.8-1.3c1.2-.8,2.9-2.1,4.9-3.7,4.1-3.2,9.7-7.7,15.7-12.9s11.3-10,15.1-13.6c1.9-1.8,3.4-3.3,4.4-4.3a11,11,0,0,0,1.5-1.6,8,8,0,0,0-1.7,1.5l-4.6,4.1c-3.9,3.5-9.2,8.3-15.2,13.4s-11.6,9.7-15.6,13l-4.8,3.9A21.11,21.11,0,0,0,568.3,394Z"/><path class="cls-6" d="M624.9,353c0-.2-3.2-.5-7,.6a16,16,0,0,0-6.2,3.2c.1.2,2.7-1.5,6.4-2.5S624.9,353.3,624.9,353Z"/><path class="cls-6" d="M618.7,348.8c-.1-.2-2.3.8-4.3,3.2s-2.4,4.8-2.2,4.8a45.59,45.59,0,0,1,2.8-4.4C616.9,350.3,618.8,349,618.7,348.8Z"/><path class="cls-2" d="M649.2,433.4c0-.1-.9-.3-1.9.6a6.78,6.78,0,0,0-2.1,4.2,8,8,0,0,0,.7,4.6c.5,1.1,1.1,1.6,1.2,1.5s-.3-.7-.7-1.7a9,9,0,0,1-.4-4.3,8.07,8.07,0,0,1,1.7-3.9A3.27,3.27,0,0,1,649.2,433.4Z"/><path class="cls-7" d="M640.1,305.2l-20.4,55.1a8.15,8.15,0,0,1-7.6,5.2L499.5,364v-8.6l41.8,1.5,17.7-55a4.41,4.41,0,0,1,4.3-3.1l72.6.2a4.4,4.4,0,0,1,4.4,4.5A3.33,3.33,0,0,1,640.1,305.2Z"/><path class="cls-2" d="M640.1,305.2V305a.9.9,0,0,0,.1-.5,3.75,3.75,0,0,0,0-2.1,4.54,4.54,0,0,0-2-2.7,4.79,4.79,0,0,0-2-.7H563.9a4.62,4.62,0,0,0-3,.7,4.36,4.36,0,0,0-1.9,2.5l-17.7,54.9v.1h-.1l-41.8-1.5.2-.2v8.6l-.2-.2,70.8,1,30.8.4,7.1.1h3.5a7.6,7.6,0,0,0,3.3-.5,7.93,7.93,0,0,0,4.5-4.3c.7-2,1.5-4,2.2-5.9,5.7-15.3,10.3-27.7,13.5-36.2,1.6-4.3,2.8-7.6,3.7-9.8s1.3-3.5,1.3-3.5-.4,1.2-1.2,3.6-2.1,5.6-3.6,9.8c-3.2,8.6-7.7,20.9-13.4,36.3l-2.2,5.9a8.14,8.14,0,0,1-4.6,4.5,7.83,7.83,0,0,1-3.4.5h-3.5l-7.1-.1-30.8-.4-70.8-.9h-.2v-8.9h.2l41.8,1.5-.2.1,17.7-54.9a4.33,4.33,0,0,1,2-2.6,5.2,5.2,0,0,1,3.2-.7h18.2l21.2.1,30.3.1h2.5a4,4,0,0,1,2.1.7,4.54,4.54,0,0,1,2,2.7,3.75,3.75,0,0,1,0,2.1A3.93,3.93,0,0,1,640.1,305.2Z"/><path class="cls-9" d="M590.2,326a5,5,0,0,1,5.5.6,4.53,4.53,0,0,1,1.1,4.8,4.69,4.69,0,0,1-4.1,2.9,4.21,4.21,0,0,1-4.3-2.9c-.7-1.8-.2-4.5,1.8-5.4"/><path class="cls-2" d="M615.9,420.6S514.4,355.5,510,353c-3.8-2.2-14-8.4-24.1-5.7s-19.1,11.8-23.6,25c-2.6,7.5-3.7,20.4-4.4,30A44.23,44.23,0,0,0,468.4,434a28.55,28.55,0,0,0,12.7,9l3.3.9c19.2,4.2,38.9-4.5,49.7-20.9l2.3-3.6s66.5,24.4,67.5,24.1Z"/><path class="cls-6" d="M515.2,356.6s-.1,0-.3-.2l-.7-.5c-.6-.4-1.5-1.1-2.7-1.8a54.91,54.91,0,0,0-10.8-5.5,28.57,28.57,0,0,0-8.1-1.7,24.54,24.54,0,0,0-9.3,1.5,31.71,31.71,0,0,0-9,5.4,48.88,48.88,0,0,0-4,3.9,24.27,24.27,0,0,0-3.3,4.6,48.58,48.58,0,0,0-4.4,10.5c-1,3.5-1.7,7-2.5,10.3a96.38,96.38,0,0,0-2.3,17.8,61.66,61.66,0,0,0,.9,12.1c.2,1.4.5,2.5.6,3.2l.2.8v.3c0-.1-.1-.2-.1-.3l-.2-.8a23.35,23.35,0,0,1-.7-3.2,61.3,61.3,0,0,1-1.2-12.1,90.33,90.33,0,0,1,2.2-17.9c.7-3.3,1.5-6.8,2.4-10.4a51.58,51.58,0,0,1,4.4-10.6,32.07,32.07,0,0,1,3.4-4.8,51.81,51.81,0,0,1,4.1-4,29.63,29.63,0,0,1,9.2-5.5,22.52,22.52,0,0,1,9.6-1.5,28.66,28.66,0,0,1,8.2,1.8,55.76,55.76,0,0,1,10.8,5.7c1.2.8,2.1,1.5,2.7,1.9l.7.5Z"/><path class="cls-6" d="M490.2,402.2l.6.2,1.7.7,6.4,2.5,23.9,9c10.2,3.8,22.4,8.3,36,13.3s28.8,10.5,45,15.9l.3.1.1-.3,7.9-15.2,4-7.7.2-.3-.3-.2L538.5,371l-23.2-14.7-6.3-3.9-1.6-1-.6-.3a2.22,2.22,0,0,1,.5.4l1.6,1.1,6.3,4.1,23.2,14.9L615.8,421l-.1-.5-4.1,7.7-7.9,15.1.4-.2c-16.2-5.5-31.4-10.9-45-15.8l-36-13.1-24-8.8-6.5-2.3-1.7-.6C490.4,402.3,490.2,402.2,490.2,402.2Z"/><path d="M495.4,186.6a51.3,51.3,0,0,1-4.5-10.8,17.48,17.48,0,0,1,.6-11.5c.9-2.1,2.4-3.9,3.2-6.1,1-3,.6-6.5,2.4-9,2.9-4,9-3,13.5-5.1,3.5-1.6,5.9-5.1,9.5-6.3,3.2-1,6.7,0,9.7,1.3s6.1,3,9.4,3.4c2.4.1,4.8.1,7.1,0a9.37,9.37,0,0,1,6.6,2.3c1.7,1.7,2,4.8.2,6.4,4.2-.7,8.1,3.5,8,7.7s-3.2,7.9-7.1,9.7-8.2,1.9-12.4,1.5c-11.9-.9-23.9-5.5-32-14.3"/><path class="cls-12" d="M498.1,171.6,490,230.7a17.78,17.78,0,0,0,15.1,20c.3,0,.6.1.9.1h0a17.77,17.77,0,0,0,19.1-15.3c.6-4.4,1.2-8.1,1.2-8.6,0,0,15.2.7,18.4-14.1,1.5-7.1,3.5-22.1,5-35.6a28.08,28.08,0,0,0-22.4-30.8l-1.4-.3C510.2,144.1,499.7,156,498.1,171.6Z"/><path class="cls-13" d="M526.4,226.7a35.35,35.35,0,0,1-18.2-9.3s2.4,11.5,17.4,13.2Z"/><path class="cls-2" d="M543,189.8a2.09,2.09,0,0,1-2.5,1.7,2.05,2.05,0,0,1-1.8-2.3v-.1a2.17,2.17,0,0,1,2.5-1.7,2.07,2.07,0,0,1,1.8,2.4Z"/><path class="cls-2" d="M545,183.9c-.3.2-1.7-1.3-4-1.7s-4.2.3-4.3,0c-.1-.1.3-.6,1.2-1a6,6,0,0,1,3.5-.4,5.32,5.32,0,0,1,3.1,1.7C545.1,183.3,545.2,183.8,545,183.9Z"/><path class="cls-2" d="M521.9,186.2a2.17,2.17,0,0,1-2.5,1.7,2.11,2.11,0,0,1-1.8-2.3h0a2.17,2.17,0,0,1,2.5-1.7,2.05,2.05,0,0,1,1.8,2.3Z"/><path class="cls-2" d="M522.7,179.9c-.3.2-1.7-1.3-4-1.7s-4.2.4-4.4,0c-.1-.2.3-.6,1.1-1a6.08,6.08,0,0,1,3.5-.4,5.32,5.32,0,0,1,3.1,1.7A2,2,0,0,1,522.7,179.9Z"/><path class="cls-2" d="M527.4,198.3a16,16,0,0,1,3.8.1c.6,0,1.2,0,1.3-.3a2.77,2.77,0,0,0,0-1.8c-.3-1.5-.5-3.1-.8-4.8-1.2-6.8-1.8-12.3-1.5-12.3s1.4,5.4,2.5,12.2c.3,1.7.5,3.3.8,4.8a3,3,0,0,1-.2,2.3,1.85,1.85,0,0,1-1.2.7,3.4,3.4,0,0,1-1-.1A19,19,0,0,1,527.4,198.3Z"/><path class="cls-2" d="M520.4,198.6c.4.1-.1,2.5,1.6,4.6s4.4,2.4,4.4,2.8c0,.2-.7.4-1.8.2a6.19,6.19,0,0,1-3.7-2.2,5.51,5.51,0,0,1-1.2-3.9A3.56,3.56,0,0,1,520.4,198.6Z"/><path d="M525,171.1c-.3.6-2.6-.2-5.3-.4s-5,.1-5.3-.5c-.1-.3.4-.8,1.4-1.2a9.52,9.52,0,0,1,4.1-.6,7.88,7.88,0,0,1,3.9,1.3C524.7,170.2,525.2,170.8,525,171.1Z"/><path d="M545.4,177.2c-.5.4-2-.4-3.8-.8s-3.5-.3-3.8-1c-.1-.3.3-.8,1-1.1a5.3,5.3,0,0,1,3.3-.2,5.58,5.58,0,0,1,2.9,1.6C545.6,176.4,545.7,176.9,545.4,177.2Z"/><path class="cls-12" d="M497.1,182.8c-.2-.2-9.6-5-11.2,5.1s8.9,9.8,8.9,9.5S497.1,182.8,497.1,182.8Z"/><path class="cls-13" d="M492.2,193.1a4.2,4.2,0,0,1-.5.2,1.91,1.91,0,0,1-1.3-.2c-1-.6-1.6-2.4-1.4-4.3a5.81,5.81,0,0,1,.9-2.5,2.2,2.2,0,0,1,1.6-1.2,1,1,0,0,1,1,.7.69.69,0,0,1,0,.5s.2-.1.2-.6a.91.91,0,0,0-.3-.7,1.09,1.09,0,0,0-.9-.4,2.33,2.33,0,0,0-2.1,1.3,5.36,5.36,0,0,0-1.1,2.7c-.3,2.1.5,4.1,1.8,4.8a2.48,2.48,0,0,0,1.7,0C492.2,193.3,492.2,193.1,492.2,193.1Z"/><path class="cls-14" d="M552.6,163.6c-1.7,3.8-10.7,5.2-17.3,3.2-6.1-1.8-8.2-5.7-12.1-9-2.4-2.1-2.4-2.1-6.4-2.5-3.2-.3-5.8,2.9-8.2,5,1.4,8.1-2.2,16.1-5.7,23.5a4.25,4.25,0,0,1-1.6,2.1c-1.4.7-3-.4-3.8-1.7a11.84,11.84,0,0,1-1.4-7.1,42.25,42.25,0,0,1,3.4-16.4A28.55,28.55,0,0,1,510.1,148a27.06,27.06,0,0,1,20.2-3.3A33.39,33.39,0,0,1,548,155.3a19.84,19.84,0,0,1,4.6,8.3"/><path class="cls-2" d="M531.9,188.1a15.55,15.55,0,0,1,.5-2.3,10.06,10.06,0,0,1,3.6-5.2,9.68,9.68,0,0,1,9-1.3,9.06,9.06,0,0,1,4.4,3.3,9.46,9.46,0,0,1,0,11.1A9.06,9.06,0,0,1,545,197a9.68,9.68,0,0,1-9-1.3,10.06,10.06,0,0,1-3.6-5.2c-.4-1.5-.4-2.3-.5-2.4v.7a11,11,0,0,0,.2,1.8,9.48,9.48,0,0,0,3.6,5.6,10.16,10.16,0,0,0,14.2-1.8l.2-.2A10.21,10.21,0,0,0,536,179.8c-.1.1-.2.2-.3.2a10,10,0,0,0-3.6,5.6,11,11,0,0,0-.2,1.8Z"/><path class="cls-2" d="M507.7,183.9c.1,0,.1-.9.5-2.3a10.06,10.06,0,0,1,3.6-5.2,9.68,9.68,0,0,1,9-1.3,9.06,9.06,0,0,1,4.4,3.3,9.46,9.46,0,0,1,0,11.1,9.06,9.06,0,0,1-4.4,3.3,9.68,9.68,0,0,1-9-1.3,10.06,10.06,0,0,1-3.6-5.2c-.3-1.5-.3-2.3-.5-2.4v.7a11,11,0,0,0,.2,1.8,9.48,9.48,0,0,0,3.6,5.6,10.16,10.16,0,0,0,14.2-1.8l.2-.2a10.36,10.36,0,0,0,2-6.1,9.84,9.84,0,0,0-2-6,10.08,10.08,0,0,0-14.1-2.2c-.1.1-.2.1-.2.2a10,10,0,0,0-3.6,5.6,11,11,0,0,0-.2,1.8A1.27,1.27,0,0,0,507.7,183.9Z"/><path class="cls-2" d="M527.7,184.3c.1.2,1.4-.4,2.9,0s2.3,1.7,2.5,1.5,0-.4-.3-.9a3.61,3.61,0,0,0-4.3-1.3C527.9,183.9,527.6,184.2,527.7,184.3Z"/><path class="cls-2" d="M494.2,181.3c0,.2,3.2.4,7.2.3s7.2-.3,7.2-.5-3.2-.4-7.2-.3S494.2,181.1,494.2,181.3Z"/><path class="cls-9" d="M557.3,153.9a3.55,3.55,0,0,1-.2,1,4.82,4.82,0,0,1-1.5,2.2,6.8,6.8,0,0,1-3.7,1.5,19.32,19.32,0,0,1-4.8-.2,81.72,81.72,0,0,1-8.6-1.7c-1.1-.3-2-.5-2.6-.7l-.7-.2a.35.35,0,0,1-.2-.1h.2l.7.2,2.6.7c2.2.5,5.2,1.2,8.6,1.7a19.39,19.39,0,0,0,4.8.3,7,7,0,0,0,3.6-1.4,4.53,4.53,0,0,0,1.5-2.1A4.73,4.73,0,0,0,557.3,153.9Z"/><path class="cls-9" d="M559.7,156.2a7.09,7.09,0,0,1-.9,2.8,12.14,12.14,0,0,1-11.5,6.9,7.53,7.53,0,0,1-2.9-.6l.8.2a14.92,14.92,0,0,0,2.1.2,12.38,12.38,0,0,0,12.1-8.8A2.12,2.12,0,0,1,559.7,156.2Z"/></g></g></g></svg>